<?xml version="1.0" encoding="UTF-8" standalone="no"?><svg xmlns="http://www.w3.org/2000/svg" xmlns:xlink="http://www.w3.org/1999/xlink" contentScriptType="application/ecmascript" contentStyleType="text/css" height="898px" preserveAspectRatio="none" style="width:1980px;height:898px;" version="1.1" viewBox="0 0 1980 898" width="1980px" zoomAndPan="magnify"><defs><filter height="300%" id="fuxwtxfuu4mvh" width="300%" x="-1" y="-1"><feGaussianBlur result="blurOut" stdDeviation="4.0"/><feColorMatrix in="blurOut" result="blurOut2" type="matrix" values="0 0 0 0 0 0 0 0 0 0 0 0 0 0 0 0 0 0 .4 0"/><feOffset dx="8.0" dy="8.0" in="blurOut2" result="blurOut3"/><feBlend in="SourceGraphic" in2="blurOut3" mode="normal"/></filter></defs><g><!--class SurveyState--><rect fill="#FEFECE" filter="url(#fuxwtxfuu4mvh)" height="179.0156" id="SurveyState" style="stroke: #A80036; stroke-width: 3.0;" width="192" x="12" y="426"/><ellipse cx="42" cy="458" fill="#EB937F" rx="22" ry="22" style="stroke: #A80036; stroke-width: 2.0;"/><path d="M39.7188,459.5938 L39.7188,464.5938 L48.375,464.5938 L48.375,462.75 Q48.375,461.5313 48.8594,461 Q49.3438,460.4688 50.0938,460.4688 Q50.8438,460.4688 51.3125,461 Q51.7813,461.5313 51.7813,462.75 L51.7813,468 L35.7813,468 Q34.5313,468 34.0156,467.5313 Q33.5,467.0625 33.5,466.2813 Q33.5,465.5313 34.0313,465.0625 Q34.5625,464.5938 35.7813,464.5938 L36.3125,464.5938 L36.3125,451.2813 L35.7813,451.2813 Q34.5313,451.2813 34.0156,450.8125 Q33.5,450.3438 33.5,449.5625 Q33.5,448.8125 34.0156,448.3438 Q34.5313,447.875 35.7813,447.875 L51.0313,447.875 L51.0313,453.0625 Q51.0313,454.2813 50.5781,454.7969 Q50.125,455.3125 49.3438,455.3125 Q48.5938,455.3125 48.125,454.7969 Q47.6563,454.2813 47.6563,453.0625 L47.6563,451.2813 L39.7188,451.2813 L39.7188,456.1875 L42.6875,456.1875 Q42.6875,454.875 42.9375,454.5 Q43.4688,453.6875 44.4063,453.6875 Q45.1563,453.6875 45.625,454.2031 Q46.0938,454.7188 46.0938,455.9375 L46.0938,459.875 Q46.0938,460.9688 45.8438,461.3438 Q45.3125,462.125 44.4063,462.125 Q43.4688,462.125 42.9375,461.3125 Q42.6875,460.9375 42.6875,459.5938 L39.7188,459.5938 Z "/><text fill="#000000" font-family="sans-serif" font-size="24" lengthAdjust="spacingAndGlyphs" textLength="128" x="70" y="467.8203">SurveyState</text><line style="stroke: #A80036; stroke-width: 3.0;" x1="14" x2="202" y1="490" y2="490"/><text fill="#000000" font-family="sans-serif" font-size="22" lengthAdjust="spacingAndGlyphs" textLength="142" x="24" y="520.8379">IN_PROGRESS</text><text fill="#000000" font-family="sans-serif" font-size="22" lengthAdjust="spacingAndGlyphs" textLength="106" x="24" y="548.5098">RELEASED</text><text fill="#000000" font-family="sans-serif" font-size="22" lengthAdjust="spacingAndGlyphs" textLength="82" x="24" y="576.1816">CLOSED</text><line style="stroke: #A80036; stroke-width: 3.0;" x1="14" x2="202" y1="589.0156" y2="589.0156"/><!--class Survey--><rect fill="#FEFECE" filter="url(#fuxwtxfuu4mvh)" height="234.3594" id="Survey" style="stroke: #A80036; stroke-width: 3.0;" width="232" x="64" y="44"/><ellipse cx="137.2" cy="76" fill="#ADD1B2" rx="22" ry="22" style="stroke: #A80036; stroke-width: 2.0;"/><path d="M142.7313,67.75 Q143.0438,67.3125 143.4188,67.0938 Q143.7938,66.875 144.2313,66.875 Q144.9813,66.875 145.45,67.3906 Q145.9188,67.9063 145.9188,69.125 L145.9188,72.0313 Q145.9188,73.25 145.45,73.7813 Q144.9813,74.3125 144.2313,74.3125 Q143.5438,74.3125 143.1375,73.9063 Q142.7313,73.5313 142.5125,72.5 Q142.4188,71.7813 142.0438,71.4063 Q141.3875,70.6563 140.1688,70.2188 Q138.95,69.7813 137.7,69.7813 Q136.1688,69.7813 134.9031,70.4375 Q133.6375,71.0938 132.6531,72.5938 Q131.6688,74.0938 131.6688,76.1563 L131.6688,78.3438 Q131.6688,80.8125 133.45,82.4531 Q135.2313,84.0938 138.4188,84.0938 Q140.2938,84.0938 141.6063,83.5938 Q142.3875,83.2813 143.2313,82.4063 Q143.7625,81.875 144.0594,81.7188 Q144.3563,81.5625 144.7625,81.5625 Q145.4188,81.5625 145.9344,82.0781 Q146.45,82.5938 146.45,83.2813 Q146.45,83.9688 145.7625,84.7813 Q144.7625,85.9375 143.1688,86.5938 Q141.0125,87.5 138.4188,87.5 Q135.3875,87.5 132.9813,86.25 Q131.0125,85.25 129.6375,83.1094 Q128.2625,80.9688 128.2625,78.4063 L128.2625,76.0938 Q128.2625,73.4375 129.4969,71.1406 Q130.7313,68.8438 132.9188,67.6094 Q135.1063,66.375 137.575,66.375 Q139.0438,66.375 140.3406,66.7031 Q141.6375,67.0313 142.7313,67.75 Z "/><text fill="#000000" font-family="sans-serif" font-size="24" lengthAdjust="spacingAndGlyphs" textLength="72" x="174.8" y="85.8203">Survey</text><line style="stroke: #A80036; stroke-width: 3.0;" x1="66" x2="294" y1="108" y2="108"/><ellipse cx="86" cy="132.8359" fill="none" rx="6" ry="6" style="stroke: #038048; stroke-width: 2.0;"/><text fill="#000000" font-family="sans-serif" font-size="22" lengthAdjust="spacingAndGlyphs" textLength="68" x="104" y="138.8379">id: long</text><ellipse cx="86" cy="160.5078" fill="none" rx="6" ry="6" style="stroke: #038048; stroke-width: 2.0;"/><text fill="#000000" font-family="sans-serif" font-size="22" lengthAdjust="spacingAndGlyphs" textLength="98" x="104" y="166.5098">title: string</text><ellipse cx="86" cy="188.1797" fill="none" rx="6" ry="6" style="stroke: #038048; stroke-width: 2.0;"/><text fill="#000000" font-family="sans-serif" font-size="22" lengthAdjust="spacingAndGlyphs" textLength="172" x="104" y="194.1816">description: string</text><ellipse cx="86" cy="215.8516" fill="none" rx="6" ry="6" style="stroke: #038048; stroke-width: 2.0;"/><text fill="#000000" font-family="sans-serif" font-size="22" lengthAdjust="spacingAndGlyphs" textLength="130" x="104" y="221.8535">authorId: long</text><ellipse cx="86" cy="243.5234" fill="none" rx="6" ry="6" style="stroke: #038048; stroke-width: 2.0;"/><text fill="#000000" font-family="sans-serif" font-size="22" lengthAdjust="spacingAndGlyphs" textLength="180" x="104" y="249.5254">state: SurveyState</text><line style="stroke: #A80036; stroke-width: 3.0;" x1="66" x2="294" y1="262.3594" y2="262.3594"/><!--class Question--><rect fill="#FEFECE" filter="url(#fuxwtxfuu4mvh)" height="289.7031" id="Question" style="stroke: #A80036; stroke-width: 3.0;" width="328" x="508" y="16"/><ellipse cx="614.5" cy="48" fill="#A9DCDF" rx="22" ry="22" style="stroke: #A80036; stroke-width: 2.0;"/><path d="M618.875,51.5313 L610.5938,51.5313 L609.75,53.5938 L610.5938,53.5938 Q611.8125,53.5938 612.3438,54.0625 Q612.875,54.5313 612.875,55.3125 Q612.875,56.0625 612.3438,56.5313 Q611.8125,57 610.5938,57 L606,57 Q604.7813,57 604.2656,56.5313 Q603.75,56.0625 603.75,55.2813 Q603.75,54.5313 604.2969,54.0469 Q604.8438,53.5625 606.0938,53.5938 L611.4375,40.2813 L609.2188,40.2813 Q608,40.2813 607.4688,39.8125 Q606.9375,39.3438 606.9375,38.5625 Q606.9375,37.8125 607.4688,37.3438 Q608,36.875 609.2188,36.875 L616.5625,36.875 L623.3438,53.5938 Q624.5313,53.5938 624.9063,53.875 Q625.6875,54.4063 625.6875,55.3125 Q625.6875,56.0625 625.1719,56.5313 Q624.6563,57 623.4375,57 L618.8438,57 Q617.625,57 617.0938,56.5313 Q616.5625,56.0625 616.5625,55.2813 Q616.5625,54.5313 617.0938,54.0625 Q617.625,53.5938 618.8438,53.5938 L619.6875,53.5938 L618.875,51.5313 Z M617.4375,48.125 L614.7188,41.375 L611.9688,48.125 L617.4375,48.125 Z "/><text fill="#000000" font-family="sans-serif" font-size="24" font-style="italic" lengthAdjust="spacingAndGlyphs" textLength="98" x="655.5" y="57.8203">Question</text><line style="stroke: #A80036; stroke-width: 3.0;" x1="510" x2="834" y1="80" y2="80"/><ellipse cx="530" cy="104.8359" fill="none" rx="6" ry="6" style="stroke: #038048; stroke-width: 2.0;"/><text fill="#000000" font-family="sans-serif" font-size="22" lengthAdjust="spacingAndGlyphs" textLength="68" x="548" y="110.8379">id: long</text><ellipse cx="530" cy="132.5078" fill="none" rx="6" ry="6" style="stroke: #038048; stroke-width: 2.0;"/><text fill="#000000" font-family="sans-serif" font-size="22" lengthAdjust="spacingAndGlyphs" textLength="190" x="548" y="138.5098">questionText: string</text><ellipse cx="530" cy="160.1797" fill="none" rx="6" ry="6" style="stroke: #038048; stroke-width: 2.0;"/><text fill="#000000" font-family="sans-serif" font-size="22" lengthAdjust="spacingAndGlyphs" textLength="172" x="548" y="166.1816">description: string</text><ellipse cx="530" cy="187.8516" fill="none" rx="6" ry="6" style="stroke: #038048; stroke-width: 2.0;"/><text fill="#000000" font-family="sans-serif" font-size="22" lengthAdjust="spacingAndGlyphs" textLength="190" x="548" y="193.8535">mandatory: boolean</text><ellipse cx="530" cy="215.5234" fill="none" rx="6" ry="6" style="stroke: #038048; stroke-width: 2.0;"/><text fill="#000000" font-family="sans-serif" font-size="22" lengthAdjust="spacingAndGlyphs" textLength="276" x="548" y="221.5254">questionType: QuestionType</text><ellipse cx="530" cy="243.1953" fill="none" rx="6" ry="6" style="stroke: #038048; stroke-width: 2.0;"/><text fill="#000000" font-family="sans-serif" font-size="22" lengthAdjust="spacingAndGlyphs" textLength="152" x="548" y="249.1973">condition: string</text><ellipse cx="530" cy="270.8672" fill="none" rx="6" ry="6" style="stroke: #038048; stroke-width: 2.0;"/><text fill="#000000" font-family="sans-serif" font-size="22" lengthAdjust="spacingAndGlyphs" textLength="136" x="548" y="276.8691">surveyId: long</text><line style="stroke: #A80036; stroke-width: 3.0;" x1="510" x2="834" y1="289.7031" y2="289.7031"/><!--class QuestionType--><rect fill="#FEFECE" filter="url(#fuxwtxfuu4mvh)" height="151.3438" id="QuestionType" style="stroke: #A80036; stroke-width: 3.0;" width="296" x="274" y="440"/><ellipse cx="340" cy="472" fill="#EB937F" rx="22" ry="22" style="stroke: #A80036; stroke-width: 2.0;"/><path d="M337.7188,473.5938 L337.7188,478.5938 L346.375,478.5938 L346.375,476.75 Q346.375,475.5313 346.8594,475 Q347.3438,474.4688 348.0938,474.4688 Q348.8438,474.4688 349.3125,475 Q349.7813,475.5313 349.7813,476.75 L349.7813,482 L333.7813,482 Q332.5313,482 332.0156,481.5313 Q331.5,481.0625 331.5,480.2813 Q331.5,479.5313 332.0313,479.0625 Q332.5625,478.5938 333.7813,478.5938 L334.3125,478.5938 L334.3125,465.2813 L333.7813,465.2813 Q332.5313,465.2813 332.0156,464.8125 Q331.5,464.3438 331.5,463.5625 Q331.5,462.8125 332.0156,462.3438 Q332.5313,461.875 333.7813,461.875 L349.0313,461.875 L349.0313,467.0625 Q349.0313,468.2813 348.5781,468.7969 Q348.125,469.3125 347.3438,469.3125 Q346.5938,469.3125 346.125,468.7969 Q345.6563,468.2813 345.6563,467.0625 L345.6563,465.2813 L337.7188,465.2813 L337.7188,470.1875 L340.6875,470.1875 Q340.6875,468.875 340.9375,468.5 Q341.4688,467.6875 342.4063,467.6875 Q343.1563,467.6875 343.625,468.2031 Q344.0938,468.7188 344.0938,469.9375 L344.0938,473.875 Q344.0938,474.9688 343.8438,475.3438 Q343.3125,476.125 342.4063,476.125 Q341.4688,476.125 340.9375,475.3125 Q340.6875,474.9375 340.6875,473.5938 L337.7188,473.5938 Z "/><text fill="#000000" font-family="sans-serif" font-size="24" lengthAdjust="spacingAndGlyphs" textLength="152" x="376" y="481.8203">QuestionType</text><line style="stroke: #A80036; stroke-width: 3.0;" x1="276" x2="568" y1="504" y2="504"/><text fill="#000000" font-family="sans-serif" font-size="22" lengthAdjust="spacingAndGlyphs" textLength="164" x="286" y="534.8379">TEXT_QUESTION</text><text fill="#000000" font-family="sans-serif" font-size="22" lengthAdjust="spacingAndGlyphs" textLength="272" x="286" y="562.5098">SINGLE_CHOICE_QUESTION</text><line style="stroke: #A80036; stroke-width: 3.0;" x1="276" x2="568" y1="575.3438" y2="575.3438"/><!--class TextQuestion--><rect fill="#FEFECE" filter="url(#fuxwtxfuu4mvh)" height="96" id="TextQuestion" style="stroke: #A80036; stroke-width: 3.0;" width="208" x="640" y="468"/><ellipse cx="670" cy="500" fill="#ADD1B2" rx="22" ry="22" style="stroke: #A80036; stroke-width: 2.0;"/><path d="M675.5313,491.75 Q675.8438,491.3125 676.2188,491.0938 Q676.5938,490.875 677.0313,490.875 Q677.7813,490.875 678.25,491.3906 Q678.7188,491.9063 678.7188,493.125 L678.7188,496.0313 Q678.7188,497.25 678.25,497.7813 Q677.7813,498.3125 677.0313,498.3125 Q676.3438,498.3125 675.9375,497.9063 Q675.5313,497.5313 675.3125,496.5 Q675.2188,495.7813 674.8438,495.4063 Q674.1875,494.6563 672.9688,494.2188 Q671.75,493.7813 670.5,493.7813 Q668.9688,493.7813 667.7031,494.4375 Q666.4375,495.0938 665.4531,496.5938 Q664.4688,498.0938 664.4688,500.1563 L664.4688,502.3438 Q664.4688,504.8125 666.25,506.4531 Q668.0313,508.0938 671.2188,508.0938 Q673.0938,508.0938 674.4063,507.5938 Q675.1875,507.2813 676.0313,506.4063 Q676.5625,505.875 676.8594,505.7188 Q677.1563,505.5625 677.5625,505.5625 Q678.2188,505.5625 678.7344,506.0781 Q679.25,506.5938 679.25,507.2813 Q679.25,507.9688 678.5625,508.7813 Q677.5625,509.9375 675.9688,510.5938 Q673.8125,511.5 671.2188,511.5 Q668.1875,511.5 665.7813,510.25 Q663.8125,509.25 662.4375,507.1094 Q661.0625,504.9688 661.0625,502.4063 L661.0625,500.0938 Q661.0625,497.4375 662.2969,495.1406 Q663.5313,492.8438 665.7188,491.6094 Q667.9063,490.375 670.375,490.375 Q671.8438,490.375 673.1406,490.7031 Q674.4375,491.0313 675.5313,491.75 Z "/><text fill="#000000" font-family="sans-serif" font-size="24" lengthAdjust="spacingAndGlyphs" textLength="144" x="698" y="509.8203">TextQuestion</text><line style="stroke: #A80036; stroke-width: 3.0;" x1="642" x2="846" y1="532" y2="532"/><line style="stroke: #A80036; stroke-width: 3.0;" x1="642" x2="846" y1="548" y2="548"/><!--class SingleChoiceQuestion--><rect fill="#FEFECE" filter="url(#fuxwtxfuu4mvh)" height="123.6719" id="SingleChoiceQuestion" style="stroke: #A80036; stroke-width: 3.0;" width="368" x="918" y="454"/><ellipse cx="973.2" cy="486" fill="#ADD1B2" rx="22" ry="22" style="stroke: #A80036; stroke-width: 2.0;"/><path d="M978.7313,477.75 Q979.0438,477.3125 979.4188,477.0938 Q979.7938,476.875 980.2313,476.875 Q980.9813,476.875 981.45,477.3906 Q981.9188,477.9063 981.9188,479.125 L981.9188,482.0313 Q981.9188,483.25 981.45,483.7813 Q980.9813,484.3125 980.2313,484.3125 Q979.5438,484.3125 979.1375,483.9063 Q978.7313,483.5313 978.5125,482.5 Q978.4188,481.7813 978.0438,481.4063 Q977.3875,480.6563 976.1688,480.2188 Q974.95,479.7813 973.7,479.7813 Q972.1688,479.7813 970.9031,480.4375 Q969.6375,481.0938 968.6531,482.5938 Q967.6688,484.0938 967.6688,486.1563 L967.6688,488.3438 Q967.6688,490.8125 969.45,492.4531 Q971.2313,494.0938 974.4188,494.0938 Q976.2938,494.0938 977.6063,493.5938 Q978.3875,493.2813 979.2313,492.4063 Q979.7625,491.875 980.0594,491.7188 Q980.3563,491.5625 980.7625,491.5625 Q981.4188,491.5625 981.9344,492.0781 Q982.45,492.5938 982.45,493.2813 Q982.45,493.9688 981.7625,494.7813 Q980.7625,495.9375 979.1688,496.5938 Q977.0125,497.5 974.4188,497.5 Q971.3875,497.5 968.9813,496.25 Q967.0125,495.25 965.6375,493.1094 Q964.2625,490.9688 964.2625,488.4063 L964.2625,486.0938 Q964.2625,483.4375 965.4969,481.1406 Q966.7313,478.8438 968.9188,477.6094 Q971.1063,476.375 973.575,476.375 Q975.0438,476.375 976.3406,476.7031 Q977.6375,477.0313 978.7313,477.75 Z "/><text fill="#000000" font-family="sans-serif" font-size="24" lengthAdjust="spacingAndGlyphs" textLength="248" x="1006.8" y="495.8203">SingleChoiceQuestion</text><line style="stroke: #A80036; stroke-width: 3.0;" x1="920" x2="1284" y1="518" y2="518"/><ellipse cx="940" cy="542.8359" fill="none" rx="6" ry="6" style="stroke: #038048; stroke-width: 2.0;"/><text fill="#000000" font-family="sans-serif" font-size="22" lengthAdjust="spacingAndGlyphs" textLength="316" x="958" y="548.8379">choiceEntries: List&lt;ChoiceEntry&gt;</text><line style="stroke: #A80036; stroke-width: 3.0;" x1="920" x2="1284" y1="561.6719" y2="561.6719"/><!--class ChoiceEntry--><rect fill="#FEFECE" filter="url(#fuxwtxfuu4mvh)" height="151.3438" id="ChoiceEntry" style="stroke: #A80036; stroke-width: 3.0;" width="224" x="990" y="726"/><ellipse cx="1032.6" cy="758" fill="#ADD1B2" rx="22" ry="22" style="stroke: #A80036; stroke-width: 2.0;"/><path d="M1038.1313,749.75 Q1038.4438,749.3125 1038.8188,749.0938 Q1039.1938,748.875 1039.6313,748.875 Q1040.3813,748.875 1040.85,749.3906 Q1041.3188,749.9063 1041.3188,751.125 L1041.3188,754.0313 Q1041.3188,755.25 1040.85,755.7813 Q1040.3813,756.3125 1039.6313,756.3125 Q1038.9438,756.3125 1038.5375,755.9063 Q1038.1313,755.5313 1037.9125,754.5 Q1037.8188,753.7813 1037.4438,753.4063 Q1036.7875,752.6563 1035.5688,752.2188 Q1034.35,751.7813 1033.1,751.7813 Q1031.5688,751.7813 1030.3031,752.4375 Q1029.0375,753.0938 1028.0531,754.5938 Q1027.0688,756.0938 1027.0688,758.1563 L1027.0688,760.3438 Q1027.0688,762.8125 1028.85,764.4531 Q1030.6313,766.0938 1033.8188,766.0938 Q1035.6938,766.0938 1037.0063,765.5938 Q1037.7875,765.2813 1038.6313,764.4063 Q1039.1625,763.875 1039.4594,763.7188 Q1039.7563,763.5625 1040.1625,763.5625 Q1040.8188,763.5625 1041.3344,764.0781 Q1041.85,764.5938 1041.85,765.2813 Q1041.85,765.9688 1041.1625,766.7813 Q1040.1625,767.9375 1038.5688,768.5938 Q1036.4125,769.5 1033.8188,769.5 Q1030.7875,769.5 1028.3813,768.25 Q1026.4125,767.25 1025.0375,765.1094 Q1023.6625,762.9688 1023.6625,760.4063 L1023.6625,758.0938 Q1023.6625,755.4375 1024.8969,753.1406 Q1026.1313,750.8438 1028.3188,749.6094 Q1030.5063,748.375 1032.975,748.375 Q1034.4438,748.375 1035.7406,748.7031 Q1037.0375,749.0313 1038.1313,749.75 Z "/><text fill="#000000" font-family="sans-serif" font-size="24" lengthAdjust="spacingAndGlyphs" textLength="132" x="1063.4" y="767.8203">ChoiceEntry</text><line style="stroke: #A80036; stroke-width: 3.0;" x1="992" x2="1212" y1="790" y2="790"/><ellipse cx="1012" cy="814.8359" fill="none" rx="6" ry="6" style="stroke: #038048; stroke-width: 2.0;"/><text fill="#000000" font-family="sans-serif" font-size="22" lengthAdjust="spacingAndGlyphs" textLength="100" x="1030" y="820.8379">key: string</text><ellipse cx="1012" cy="842.5078" fill="none" rx="6" ry="6" style="stroke: #038048; stroke-width: 2.0;"/><text fill="#000000" font-family="sans-serif" font-size="22" lengthAdjust="spacingAndGlyphs" textLength="172" x="1030" y="848.5098">choiceText: string</text><line style="stroke: #A80036; stroke-width: 3.0;" x1="992" x2="1212" y1="861.3438" y2="861.3438"/><!--class Answer--><rect fill="#FEFECE" filter="url(#fuxwtxfuu4mvh)" height="123.6719" id="Answer" style="stroke: #A80036; stroke-width: 3.0;" width="202" x="1571" y="99"/><ellipse cx="1627.1" cy="131" fill="#A9DCDF" rx="22" ry="22" style="stroke: #A80036; stroke-width: 2.0;"/><path d="M1631.475,134.5313 L1623.1938,134.5313 L1622.35,136.5938 L1623.1938,136.5938 Q1624.4125,136.5938 1624.9438,137.0625 Q1625.475,137.5313 1625.475,138.3125 Q1625.475,139.0625 1624.9438,139.5313 Q1624.4125,140 1623.1938,140 L1618.6,140 Q1617.3813,140 1616.8656,139.5313 Q1616.35,139.0625 1616.35,138.2813 Q1616.35,137.5313 1616.8969,137.0469 Q1617.4438,136.5625 1618.6938,136.5938 L1624.0375,123.2813 L1621.8188,123.2813 Q1620.6,123.2813 1620.0688,122.8125 Q1619.5375,122.3438 1619.5375,121.5625 Q1619.5375,120.8125 1620.0688,120.3438 Q1620.6,119.875 1621.8188,119.875 L1629.1625,119.875 L1635.9438,136.5938 Q1637.1313,136.5938 1637.5063,136.875 Q1638.2875,137.4063 1638.2875,138.3125 Q1638.2875,139.0625 1637.7719,139.5313 Q1637.2563,140 1636.0375,140 L1631.4438,140 Q1630.225,140 1629.6938,139.5313 Q1629.1625,139.0625 1629.1625,138.2813 Q1629.1625,137.5313 1629.6938,137.0625 Q1630.225,136.5938 1631.4438,136.5938 L1632.2875,136.5938 L1631.475,134.5313 Z M1630.0375,131.125 L1627.3188,124.375 L1624.5688,131.125 L1630.0375,131.125 Z "/><text fill="#000000" font-family="sans-serif" font-size="24" font-style="italic" lengthAdjust="spacingAndGlyphs" textLength="80" x="1660.9" y="140.8203">Answer</text><line style="stroke: #A80036; stroke-width: 3.0;" x1="1573" x2="1771" y1="163" y2="163"/><ellipse cx="1593" cy="187.8359" fill="none" rx="6" ry="6" style="stroke: #038048; stroke-width: 2.0;"/><text fill="#000000" font-family="sans-serif" font-size="22" lengthAdjust="spacingAndGlyphs" textLength="150" x="1611" y="193.8379">questionId: long</text><line style="stroke: #A80036; stroke-width: 3.0;" x1="1573" x2="1771" y1="206.6719" y2="206.6719"/><!--class SingleChoiceAnswer--><rect fill="#FEFECE" filter="url(#fuxwtxfuu4mvh)" height="123.6719" id="SingleChoiceAnswer" style="stroke: #A80036; stroke-width: 3.0;" width="294" x="1357" y="454"/><ellipse cx="1387" cy="486" fill="#ADD1B2" rx="22" ry="22" style="stroke: #A80036; stroke-width: 2.0;"/><path d="M1392.5313,477.75 Q1392.8438,477.3125 1393.2188,477.0938 Q1393.5938,476.875 1394.0313,476.875 Q1394.7813,476.875 1395.25,477.3906 Q1395.7188,477.9063 1395.7188,479.125 L1395.7188,482.0313 Q1395.7188,483.25 1395.25,483.7813 Q1394.7813,484.3125 1394.0313,484.3125 Q1393.3438,484.3125 1392.9375,483.9063 Q1392.5313,483.5313 1392.3125,482.5 Q1392.2188,481.7813 1391.8438,481.4063 Q1391.1875,480.6563 1389.9688,480.2188 Q1388.75,479.7813 1387.5,479.7813 Q1385.9688,479.7813 1384.7031,480.4375 Q1383.4375,481.0938 1382.4531,482.5938 Q1381.4688,484.0938 1381.4688,486.1563 L1381.4688,488.3438 Q1381.4688,490.8125 1383.25,492.4531 Q1385.0313,494.0938 1388.2188,494.0938 Q1390.0938,494.0938 1391.4063,493.5938 Q1392.1875,493.2813 1393.0313,492.4063 Q1393.5625,491.875 1393.8594,491.7188 Q1394.1563,491.5625 1394.5625,491.5625 Q1395.2188,491.5625 1395.7344,492.0781 Q1396.25,492.5938 1396.25,493.2813 Q1396.25,493.9688 1395.5625,494.7813 Q1394.5625,495.9375 1392.9688,496.5938 Q1390.8125,497.5 1388.2188,497.5 Q1385.1875,497.5 1382.7813,496.25 Q1380.8125,495.25 1379.4375,493.1094 Q1378.0625,490.9688 1378.0625,488.4063 L1378.0625,486.0938 Q1378.0625,483.4375 1379.2969,481.1406 Q1380.5313,478.8438 1382.7188,477.6094 Q1384.9063,476.375 1387.375,476.375 Q1388.8438,476.375 1390.1406,476.7031 Q1391.4375,477.0313 1392.5313,477.75 Z "/><text fill="#000000" font-family="sans-serif" font-size="24" lengthAdjust="spacingAndGlyphs" textLength="230" x="1415" y="495.8203">SingleChoiceAnswer</text><line style="stroke: #A80036; stroke-width: 3.0;" x1="1359" x2="1649" y1="518" y2="518"/><ellipse cx="1379" cy="542.8359" fill="none" rx="6" ry="6" style="stroke: #038048; stroke-width: 2.0;"/><text fill="#000000" font-family="sans-serif" font-size="22" lengthAdjust="spacingAndGlyphs" textLength="168" x="1397" y="548.8379">choiceKey: string</text><line style="stroke: #A80036; stroke-width: 3.0;" x1="1359" x2="1649" y1="561.6719" y2="561.6719"/><!--class TextAnswer--><rect fill="#FEFECE" filter="url(#fuxwtxfuu4mvh)" height="123.6719" id="TextAnswer" style="stroke: #A80036; stroke-width: 3.0;" width="236" x="1722" y="454"/><ellipse cx="1772.7" cy="486" fill="#ADD1B2" rx="22" ry="22" style="stroke: #A80036; stroke-width: 2.0;"/><path d="M1778.2313,477.75 Q1778.5438,477.3125 1778.9188,477.0938 Q1779.2938,476.875 1779.7313,476.875 Q1780.4813,476.875 1780.95,477.3906 Q1781.4188,477.9063 1781.4188,479.125 L1781.4188,482.0313 Q1781.4188,483.25 1780.95,483.7813 Q1780.4813,484.3125 1779.7313,484.3125 Q1779.0438,484.3125 1778.6375,483.9063 Q1778.2313,483.5313 1778.0125,482.5 Q1777.9188,481.7813 1777.5438,481.4063 Q1776.8875,480.6563 1775.6688,480.2188 Q1774.45,479.7813 1773.2,479.7813 Q1771.6688,479.7813 1770.4031,480.4375 Q1769.1375,481.0938 1768.1531,482.5938 Q1767.1688,484.0938 1767.1688,486.1563 L1767.1688,488.3438 Q1767.1688,490.8125 1768.95,492.4531 Q1770.7313,494.0938 1773.9188,494.0938 Q1775.7938,494.0938 1777.1063,493.5938 Q1777.8875,493.2813 1778.7313,492.4063 Q1779.2625,491.875 1779.5594,491.7188 Q1779.8563,491.5625 1780.2625,491.5625 Q1780.9188,491.5625 1781.4344,492.0781 Q1781.95,492.5938 1781.95,493.2813 Q1781.95,493.9688 1781.2625,494.7813 Q1780.2625,495.9375 1778.6688,496.5938 Q1776.5125,497.5 1773.9188,497.5 Q1770.8875,497.5 1768.4813,496.25 Q1766.5125,495.25 1765.1375,493.1094 Q1763.7625,490.9688 1763.7625,488.4063 L1763.7625,486.0938 Q1763.7625,483.4375 1764.9969,481.1406 Q1766.2313,478.8438 1768.4188,477.6094 Q1770.6063,476.375 1773.075,476.375 Q1774.5438,476.375 1775.8406,476.7031 Q1777.1375,477.0313 1778.2313,477.75 Z "/><text fill="#000000" font-family="sans-serif" font-size="24" lengthAdjust="spacingAndGlyphs" textLength="126" x="1805.3" y="495.8203">TextAnswer</text><line style="stroke: #A80036; stroke-width: 3.0;" x1="1724" x2="1956" y1="518" y2="518"/><ellipse cx="1744" cy="542.8359" fill="none" rx="6" ry="6" style="stroke: #038048; stroke-width: 2.0;"/><text fill="#000000" font-family="sans-serif" font-size="22" lengthAdjust="spacingAndGlyphs" textLength="184" x="1762" y="548.8379">answerText: string</text><line style="stroke: #A80036; stroke-width: 3.0;" x1="1724" x2="1956" y1="561.6719" y2="561.6719"/><!--link Survey to Question--><path d="M307.006,161 C373.878,161 440.748,161 507.62,161 " fill="none" id="Survey-Question" style="stroke: #A80036; stroke-width: 2.0;"/><polygon fill="#A80036" points="296.274,161,314.274,169,306.274,161,314.274,153,296.274,161" style="stroke: #A80036; stroke-width: 2.0;"/><text fill="#000000" font-family="sans-serif" font-size="26" lengthAdjust="spacingAndGlyphs" textLength="40" x="312.0307" y="154.1601">0..*</text><text fill="#000000" font-family="sans-serif" font-size="26" lengthAdjust="spacingAndGlyphs" textLength="10" x="482.0053" y="154.5613">*</text><!--link Survey to SurveyState--><path d="M156.225,278.904 C146.4352,326.628 135.277,381.024 126.161,425.466 " fill="none" id="Survey-SurveyState" style="stroke: #A80036; stroke-width: 2.0;"/><!--link Question to QuestionType--><path d="M569.954,306.272 C537.282,352.146 502.44,401.062 474.782,439.896 " fill="none" id="Question-QuestionType" style="stroke: #A80036; stroke-width: 2.0;"/><!--link Question to TextQuestion--><path d="M709.514,345.876 C718.79,391.096 727.93,435.662 734.47,467.538 " fill="none" id="Question-TextQuestion" style="stroke: #A80036; stroke-width: 2.0;"/><polygon fill="none" points="695.712,348.268,701.39,306.272,723.142,342.642,695.712,348.268" style="stroke: #A80036; stroke-width: 2.0;"/><!--link Question to SingleChoiceQuestion--><path d="M867.806,322.832 C924.848,369.394 983.706,417.44 1028.148,453.716 " fill="none" id="Question-SingleChoiceQuestion" style="stroke: #A80036; stroke-width: 2.0;"/><polygon fill="none" points="858.54,333.34,836.406,297.2,876.246,311.65,858.54,333.34" style="stroke: #A80036; stroke-width: 2.0;"/><!--link SingleChoiceQuestion to ChoiceEntry--><path d="M1102,578.496 C1102,621.544 1102,679.65 1102,725.5476 " fill="none" id="SingleChoiceQuestion-ChoiceEntry" style="stroke: #A80036; stroke-width: 2.0;"/><!--link Answer to SingleChoiceAnswer--><path d="M1643.12,223.34 C1612.254,287.826 1563.612,389.452 1532.784,453.862 " fill="none" id="Answer-SingleChoiceAnswer" style="stroke: #A80036; stroke-width: 2.0;"/><!--link Answer to TextAnswer--><path d="M1700.88,223.34 C1731.746,287.826 1780.388,389.452 1811.216,453.862 " fill="none" id="Answer-TextAnswer" style="stroke: #A80036; stroke-width: 2.0;"/><!--
@startuml
scale 2
enum SurveyState{
  IN_PROGRESS
  RELEASED
  CLOSED
}

class Survey {
  +id: long 
  +title: string 
  +description: string 
  +authorId: long
  +state: SurveyState
}

abstract class Question {
  +id: long
  +questionText: string
  +description: string
  +mandatory: boolean
  +questionType: QuestionType
  +condition: string
  +surveyId: long
}

enum QuestionType{
  TEXT_QUESTION
  SINGLE_CHOICE_QUESTION
}

class TextQuestion{

}

class SingleChoiceQuestion{
  +choiceEntries: List<ChoiceEntry>
}

class ChoiceEntry{
  +key: string
  +choiceText: string
}

abstract class Answer{
  +questionId: long
}

class SingleChoiceAnswer{
  +choiceKey: string
}

class TextAnswer{
  +answerText: string
}

Survey "0..*" <- "*" Question
Survey - - SurveyState
Question - - QuestionType
Question <|- - TextQuestion
Question <|- - SingleChoiceQuestion
SingleChoiceQuestion - - ChoiceEntry
Answer - - SingleChoiceAnswer
Answer - - TextAnswer

@enduml

PlantUML version 1.2017.15(Mon Jul 03 18:45:34 CEST 2017)
(GPL source distribution)
Java Runtime: Java(TM) SE Runtime Environment
JVM: Java HotSpot(TM) 64-Bit Server VM
Java Version: 1.8.0_112-b15
Operating System: Windows 10
OS Version: 10.0
Default Encoding: Cp1252
Language: de
Country: DE
--></g></svg>